<svg width="135" height="29" viewBox="0 0 135 29" fill="none" xmlns="http://www.w3.org/2000/svg">
<path fill-rule="evenodd" clip-rule="evenodd" d="M26.6313 8.40158H26.6298V6.3839H23.7117V0H0L26.6298 27.7575L26.6277 22.3275H26.6313V8.40158ZM19.3798 3.68288V6.3839H14.8577L19.0414 10.7573H22.2994V17.2184L9.42964 3.68288H19.3798Z" fill="white"/>
<path d="M44.4715 11.5516L55.7972 0H28.7351V27.7575L41.1045 14.9802H35.1766L33.0671 17.2047V3.68288H46.2983L44.4738 5.56451L44.4715 11.5516Z" fill="white"/>
<path d="M79.8627 10.207H86.1978L86.1896 0.00817871H88.8019L88.8098 12.527H77.2558L77.2368 0.00830204H81.5925L81.5952 2.33185H79.8523L79.8627 10.207Z" fill="white"/>
<path fill-rule="evenodd" clip-rule="evenodd" d="M104.405 10.207H101.533L100.029 7.43138H102.02L102.022 0.00830203H91.0225L91.0288 12.5271H93.6388L93.6373 7.43138H97.1307L99.8933 12.527H107.014L107.021 2.33185H114.085L114.081 5.10958H108.293L109.282 7.43138H114.079L114.073 12.5271H116.683L116.7 0.00830078H104.41L104.405 10.207ZM93.6357 2.33185H99.4091L99.4088 5.10958H93.6365L93.6357 2.33185Z" fill="white"/>
<path d="M129.039 10.207L129.063 0.00817871H131.675L131.644 12.527H124.554L121.532 2.63033L121.515 12.5263H118.905L118.925 0.00830204H123.44L126.552 10.207H129.039Z" fill="white"/>
<path fill-rule="evenodd" clip-rule="evenodd" d="M75.0461 3.94214H73.2712L73.2641 0.00830078H63.5118L63.5063 12.527H75.0603L75.0461 3.94214ZM66.111 10.207L66.1109 10.1877H66.0927V2.33185H70.6563L70.6595 3.94214H67.2721L68.5109 6.26434H72.4387L72.446 10.207H66.111Z" fill="white"/>
<path fill-rule="evenodd" clip-rule="evenodd" d="M134.997 16.6107L135 18.9343H134.992L134.999 29.0001H123.746L123.728 16.6107H134.997ZM126.353 26.8559H132.387L132.38 19.2043H126.343L126.353 26.8559Z" fill="white"/>
<path d="M118.906 16.5642L118.904 26.8558H116.68L113.569 16.6571H109.246L109.227 29H111.644L111.661 19.2042L115.008 29H121.516V16.5642H118.906Z" fill="white"/>
<path d="M99.9093 26.8559L90.9194 26.8791V29H102.022V22.0808L93.0521 19.2042H102.022V16.6012L91.0115 16.62V21.0002L99.9093 24.0187V26.8559Z" fill="white"/>
<path d="M65.751 26.8285V19.2068L72.7562 19.1964V20.9325L75.0321 20.9298V16.5911L63.5115 16.61V29L74.0254 28.993V29H79.4777L79.4846 19.2042L86.4504 19.2006L86.4471 21.678L80.7424 21.6816L81.7206 23.9724L86.4443 23.9688L86.4385 28.9964H88.8006L88.8176 16.6449L77.2282 16.6485L77.2234 26.8559L65.751 26.8285Z" fill="white"/>
<path d="M104.406 16.6571H107.014V29H104.406V16.6571Z" fill="white"/>
</svg>
